<svg width="50" height="50" viewBox="0 0 50 50" fill="none" xmlns="http://www.w3.org/2000/svg">
<path d="M48.4375 35.9375V32.0312L42.1875 26.5625H35.9375" stroke="#666666" stroke-width="2" stroke-miterlimit="10" stroke-linecap="round" stroke-linejoin="round"></path>
<path d="M18.75 45.3125C20.4759 45.3125 21.875 43.9134 21.875 42.1875C21.875 40.4616 20.4759 39.0625 18.75 39.0625C17.0241 39.0625 15.625 40.4616 15.625 42.1875C15.625 43.9134 17.0241 45.3125 18.75 45.3125Z" stroke="#666666" stroke-width="2" stroke-miterlimit="10" stroke-linecap="round" stroke-linejoin="round"></path>
<path d="M42.1875 45.3125C43.9134 45.3125 45.3125 43.9134 45.3125 42.1875C45.3125 40.4616 43.9134 39.0625 42.1875 39.0625C40.4616 39.0625 39.0625 40.4616 39.0625 42.1875C39.0625 43.9134 40.4616 45.3125 42.1875 45.3125Z" stroke="#666666" stroke-width="2" stroke-miterlimit="10" stroke-linecap="round" stroke-linejoin="round"></path>
<path d="M15.625 42.1875H12.5V35.9375M12.5 35.9375H48.4375V42.1875H45.3125M12.5 35.9375V23.2812M19.1406 18.75H35.9375V35.9375M1.5625 29.6875H6.25M4.6875 35.9375H6.25" stroke="#666666" stroke-width="2" stroke-miterlimit="10" stroke-linecap="round" stroke-linejoin="round"></path>
<path d="M15.625 42.1875H12.5V35.9375M12.5 35.9375H48.4375V42.1875H45.3125M12.5 35.9375V23.2812M19.1406 18.75H35.9375V35.9375M1.5625 29.6875H6.25M4.6875 35.9375H6.25M22.2656 42.1875H39.0625" stroke="#666666" stroke-width="2" stroke-miterlimit="10" stroke-linecap="round" stroke-linejoin="round"></path>
<path d="M10.9375 23.4375C16.1152 23.4375 20.3125 19.2402 20.3125 14.0625C20.3125 8.88483 16.1152 4.6875 10.9375 4.6875C5.75983 4.6875 1.5625 8.88483 1.5625 14.0625C1.5625 19.2402 5.75983 23.4375 10.9375 23.4375Z" stroke="#666666" stroke-width="2" stroke-miterlimit="10" stroke-linecap="round" stroke-linejoin="round"></path>
<path d="M10.9375 9.375V15.625H15.625" stroke="#666666" stroke-width="2" stroke-miterlimit="10" stroke-linecap="round" stroke-linejoin="round"></path>
</svg>
