<svg width="50" height="50" viewBox="0 0 50 50" fill="none" xmlns="http://www.w3.org/2000/svg">
<path d="M37.5 11.7188L29.6875 3.90625L21.875 11.7188M29.6875 25.7812V3.90625V25.7812Z" stroke="#666666" stroke-width="2" stroke-miterlimit="10" stroke-linecap="round" stroke-linejoin="round"></path>
<path d="M3.125 5.46875H7.8125L14.0625 33.5938H46.875" stroke="#666666" stroke-width="2" stroke-miterlimit="10" stroke-linecap="round" stroke-linejoin="round"></path>
<path d="M18.75 46.0938C20.4759 46.0938 21.875 44.6946 21.875 42.9688C21.875 41.2429 20.4759 39.8438 18.75 39.8438C17.0241 39.8438 15.625 41.2429 15.625 42.9688C15.625 44.6946 17.0241 46.0938 18.75 46.0938Z" stroke="#666666" stroke-width="2" stroke-miterlimit="10" stroke-linecap="round" stroke-linejoin="round"></path>
<path d="M39.0625 46.0938C40.7884 46.0938 42.1875 44.6946 42.1875 42.9688C42.1875 41.2429 40.7884 39.8438 39.0625 39.8438C37.3366 39.8438 35.9375 41.2429 35.9375 42.9688C35.9375 44.6946 37.3366 46.0938 39.0625 46.0938Z" stroke="#666666" stroke-width="2" stroke-miterlimit="10" stroke-linecap="round" stroke-linejoin="round"></path>
</svg>
