<svg width="50" height="50" fill="none" xmlns="http://www.w3.org/2000/svg"><path d="M31.25 45.313s9.375 0 9.375-10.938h3.438a2.812 2.812 0 0 0 2.812-2.813v-8.437a2.812 2.812 0 0 0-2.813-2.813h-3.437v-3.125c0-8.628-6.215-15.625-14.844-15.625H24.22c-8.63 0-14.844 6.997-14.844 15.626v3.125H5.937a2.812 2.812 0 0 0-2.812 2.812v8.438a2.812 2.812 0 0 0 2.813 2.812h1.875" stroke="#666" stroke-width="2" stroke-miterlimit="10" stroke-linecap="round" stroke-linejoin="round"/><path d="M31.25 45.313a3.125 3.125 0 0 0-3.125-3.126H25a3.125 3.125 0 1 0 0 6.25h3.125a3.125 3.125 0 0 0 3.125-3.124ZM31.25 18.75l-4.688 10.938H37.5M34.375 25v9.375M14.062 19.961a4.688 4.688 0 0 1 6.748 6.466l-6.747 7.948h9.374" stroke="#666" stroke-width="2" stroke-miterlimit="10" stroke-linecap="round" stroke-linejoin="round"/></svg>