<svg width="50" height="50" viewBox="0 0 50 50" fill="none" xmlns="http://www.w3.org/2000/svg">
<path d="M31.25 45.3125C31.25 45.3125 40.625 45.3125 40.625 34.375H44.0625C44.8084 34.375 45.5238 34.0787 46.0512 33.5512C46.5787 33.0238 46.875 32.3084 46.875 31.5625V23.125C46.875 22.3791 46.5787 21.6637 46.0512 21.1363C45.5238 20.6088 44.8084 20.3125 44.0625 20.3125H40.625V17.1875C40.625 8.55859 34.4102 1.5625 25.7812 1.5625H24.2188C15.5883 1.5625 9.375 8.55859 9.375 17.1875V20.3125H5.9375C5.19158 20.3125 4.47621 20.6088 3.94876 21.1363C3.42132 21.6637 3.125 22.3791 3.125 23.125V31.5625C3.125 32.3084 3.42132 33.0238 3.94876 33.5512C4.47621 34.0787 5.19158 34.375 5.9375 34.375H7.8125" stroke="#666666" stroke-width="2" stroke-miterlimit="10" stroke-linecap="round" stroke-linejoin="round"/>
<path d="M31.25 45.3125C31.25 44.4837 30.9208 43.6888 30.3347 43.1028C29.7487 42.5167 28.9538 42.1875 28.125 42.1875H25C24.1712 42.1875 23.3763 42.5167 22.7903 43.1028C22.2042 43.6888 21.875 44.4837 21.875 45.3125C21.875 46.1413 22.2042 46.9362 22.7903 47.5222C23.3763 48.1083 24.1712 48.4375 25 48.4375H28.125C28.9538 48.4375 29.7487 48.1083 30.3347 47.5222C30.9208 46.9362 31.25 46.1413 31.25 45.3125Z" stroke="#666666" stroke-width="2" stroke-miterlimit="10" stroke-linecap="round" stroke-linejoin="round"/>
<path d="M31.25 18.75L26.5625 29.6875H37.5M34.375 25V34.375M14.0625 19.9609C14.943 19.1764 16.0868 18.7526 17.2659 18.774C18.445 18.7954 19.5727 19.2604 20.4241 20.0764C21.2756 20.8923 21.7882 21.9992 21.8597 23.1763C21.9313 24.3534 21.5565 25.5143 20.8102 26.4273L14.0625 34.375H23.4375" stroke="#666666" stroke-width="2" stroke-miterlimit="10" stroke-linecap="round" stroke-linejoin="round"/>
</svg>
